<svg xmlns="http://www.w3.org/2000/svg" style="display:none">
  <symbol id="icon-home" viewBox="0 0 24 24" fill="none" stroke="currentColor" stroke-width="2" stroke-linecap="round" stroke-linejoin="round">
    <path d="M3 9.5L12 3l9 6.5V20a1 1 0 01-1 1H4a1 1 0 01-1-1V9.5z"/>
    <path d="M9 21V12h6v9"/>
  </symbol>
  <symbol id="icon-book" viewBox="0 0 24 24" fill="none" stroke="currentColor" stroke-width="2" stroke-linecap="round" stroke-linejoin="round">
    <path d="M4 19.5A2.5 2.5 0 016.5 17H20"/>
    <path d="M6.5 2H20v20H6.5A2.5 2.5 0 014 19.5v-15A2.5 2.5 0 016.5 2z"/>
  </symbol>
  <symbol id="icon-user" viewBox="0 0 24 24" fill="none" stroke="currentColor" stroke-width="2" stroke-linecap="round" stroke-linejoin="round">
    <path d="M20 21v-2a4 4 0 00-4-4H8a4 4 0 00-4 4v2"/>
    <circle cx="12" cy="7" r="4"/>
  </symbol>
  <symbol id="icon-check" viewBox="0 0 24 24" fill="none" stroke="currentColor" stroke-width="2.5" stroke-linecap="round" stroke-linejoin="round">
    <polyline points="20 6 9 17 4 12"/>
  </symbol>
  <symbol id="icon-arrow-right" viewBox="0 0 24 24" fill="none" stroke="currentColor" stroke-width="2" stroke-linecap="round" stroke-linejoin="round">
    <line x1="5" y1="12" x2="19" y2="12"/>
    <polyline points="12 5 19 12 12 19"/>
  </symbol>
  <symbol id="icon-lock" viewBox="0 0 24 24" fill="none" stroke="currentColor" stroke-width="2" stroke-linecap="round" stroke-linejoin="round">
    <rect x="3" y="11" width="18" height="11" rx="2" ry="2"/>
    <path d="M7 11V7a5 5 0 0110 0v4"/>
  </symbol>
  <symbol id="icon-fire" viewBox="0 0 24 24" fill="none" stroke="currentColor" stroke-width="2" stroke-linecap="round" stroke-linejoin="round">
    <path d="M12 2s-5 5-5 10a5 5 0 0010 0c0-3-2-5-2-5s0 3-3 3c0-2 0-8 0-8z"/>
  </symbol>
</svg>